<?xml version="1.0" encoding="utf-8"?>
<!-- Generator: Adobe Adobe Illustrator 29.2.0, SVG Export Plug-In . SVG Version: 6.00 Build 0)  -->
<svg version="1.1" id="Layer_1" xmlns="http://www.w3.org/2000/svg" xmlns:xlink="http://www.w3.org/1999/xlink" x="0px" y="0px"
	 viewBox="0 0 500 500" style="enable-background:new 0 0 500 500;" xml:space="preserve">
<style type="text/css">
	.st0{fill:#FFFFFF;}
	.st1{fill:#1C1C1C;}
	.st2{fill:#1A1A1A;}
	.st3{fill:#1D1D1D;}
	.st4{fill:#1E1E1E;}
	.st5{fill:#191919;}
	.st6{fill:#171717;}
	.st7{fill:#232323;}
	.st8{fill:#181818;}
	.st9{fill:#151515;}
	.st10{fill:#2E2E2E;}
	.st11{fill:#1F1F1F;}
	.st12{fill:#161616;}
	.st13{fill:#FCFCFC;}
	.st14{fill:#262626;}
	.st15{fill:#212121;}
	.st16{fill:#EAEAEA;}
	.st17{fill:#3C3C3C;}
	.st18{fill:#222222;}
	.st19{fill:#303030;}
	.st20{fill:#2D2D2D;}
	.st21{fill:#2F2F2F;}
	.st22{fill:#E3E3E3;}
	.st23{fill:#242424;}
	.st24{fill:#DEDEDE;}
	.st25{fill:#9B9B9B;}
	.st26{fill:#2B2B2B;}
	.st27{fill:#4A4A4A;}
	.st28{fill:#5B5B5B;}
	.st29{fill:#383838;}
	.st30{fill:#2C2C2C;}
	.st31{fill:#FDFDFD;}
	.st32{fill:#787878;}
	.st33{fill:#D6D6D6;}
	.st34{fill:#ECECEC;}
	.st35{fill:#868686;}
	.st36{fill:#C4C4C4;}
	.st37{fill:#9D9D9D;}
	.st38{fill:#F9F9F9;}
	.st39{fill:#F6F6F6;}
	.st40{fill:#EFEFEF;}
	.st41{fill:#E6E6E6;}
	.st42{fill:#E4E4E4;}
	.st43{fill:#DDDDDD;}
	.st44{fill:#EBEBEB;}
	.st45{fill:#404040;}
	.st46{fill:#EEEEEE;}
	.st47{fill:#E5E5E5;}
	.st48{fill:#424242;}
	.st49{fill:#F5F5F5;}
	.st50{fill:#323232;}
	.st51{fill:#494949;}
	.st52{fill:#B4B4B4;}
	.st53{fill:#3D3D3D;}
	.st54{fill:#C300FF;}
	.st55{font-family:'EBGaramond-Regular';}
	.st56{font-size:55px;}
	.st57{fill:none;stroke:#FFFFFF;stroke-miterlimit:10;stroke-dasharray:12,12,12,12,12,12;}
</style>
<g>
	<g>
		<path class="st0" d="M122.27,233.61c0-30.5,0-60.78,0-91.08c82.01,0,164.02,0,246.07,0c0,77.52,0,155.06,0,232.66
			c-82,0-164.03,0-246.07,0C122.27,328.1,122.27,280.96,122.27,233.61z M293.15,224.61c0.73-0.93,1.57-1.8,2.14-2.81
			c0.24-0.42-0.1-1.11-0.62-1.68c-1.21,0-2.42,0.01-4.09,0.04c-2.27,0-4.54-0.05-6.8,0.04c-0.68,0.03-1.71,0.34-1.93,0.78
			c-1.01,1.98-1.79,4.06-2.89,6.3c-0.46,0.8-0.92,1.6-1.38,2.39c1.04,0.29,2.07,0.65,3.14,0.84c0.79,0.13,1.63,0.03,2.83-0.09
			c1.07-0.1,2.13-0.19,3.49-0.04c3.5,0,7.01,0,11.02,0c-0.98-0.33-1.48-0.49-1.7-0.81c0.55-1.04,0.8-2.01-1.03-2.69
			c0.52-0.99,1.04-1.97,1.58-3.01c-0.22-0.1-0.48-0.3-0.62-0.25C295.2,224.02,294.13,224.47,293.15,224.61z M305.88,220.15
			c-0.03-1.08,0.02-2.18-0.15-3.24c-0.07-0.43-0.65-1.1-1-1.1c-0.47,0-1.24,0.48-1.35,0.86c-0.32,1.11-0.36,2.27-0.85,3.45
			c-0.2,0.28-0.4,0.57-0.69,1.25c-0.11,3.07-0.21,6.14-0.53,9.48c-0.33,1.09-0.65,2.18-1.42,3.24c-8.72,0-17.44,0-26.5,0
			c0.53,0.62,0.77,0.9,1.34,1.39c4.99,0.38,9.97,0.77,15.4,1.16c1.8,0.03,3.59,0.06,5.39,0.25c0,0,0.01,0.15-0.29,0.23
			c-0.06,0.43-0.12,0.87-0.6,1.3c-1.27,0.08-3.15,0.68-3.7,0.16c-2.07-1.94-4.34-0.76-6.49-1.02c-0.23,2.1-0.23,2.1,1.09,2.94
			c-0.15,0.14-0.28,0.32-0.46,0.41c-0.6,0.31-1.21,0.59-1.82,0.88c0.52,0.36,1.19,0.63,1.53,1.09c0.3,0.42,0.25,1.04-0.01,1.6
			c-0.52,1.56,0.96,0.81,1.42,0.82c5.17,0.07,10.34,0.04,15.5,0.04c2.08,0,4.15,0,6.23,0c0,0.23,0.01,0.47,0.01,0.7
			c-9.15,0-18.31,0-27.45,0c0.03,3.93,0.74,4.3,4.18,2.69c0.54-0.25,1.24-0.28,1.88-0.29c2.74-0.03,5.48-0.01,8.41-0.01
			c0.08,0.69,0.2,1.65,0.32,2.66c-7.88,3.09-15.61,6.12-23.42,9.19c-1.15-1.31-2.79-2.49-3.78-0.51c-1.62,3.22-4.99,3.89-7.97,5.2
			c-0.95,0.42-2.02,0.64-3.25,1.02c1.08-1.66,1.66-3.15,2.8-4.13c0.87-0.74,2.18-0.89,0.76-2.17c-0.16-0.14,0.24-1.05,0.28-1.05
			c3.01,0.43,1.75-1.67,2.01-2.81c1.34,0,2.62,0.2,3.77-0.06c0.95-0.22,2.07-0.83,2.47-1.55c0.22-0.39-0.74-1.8-1.45-2.01
			c-3.31-0.98-6.67-1.94-10.1-2.43c-2.72-0.39-5.56-0.08-8.16-0.08c0.93-0.84,2.56-1.61,2.78-2.62c2.26-10.28,0.46-19.87-7.02-28.27
			c-3.01-3.38-6.25-6.59-9.38-9.88c0.94-0.07,1.66,0.18,2.34,0.47c3.18,1.36,4.39,0.96,5.99-1.86c0.38-0.68,1-1.55,1.71-1.73
			c2.62-0.64,3.81-2.46,5.17-4.24c0.32-0.42,1.14-0.8,1.71-0.78c3.58,0.15,3.87-0.21,4.25-3.39c0.25-2.06,1.11-4.07,1.72-6.15
			c2.91,1.25,5.2,2.33,7.59,3.19c0.65,0.23,2.06,0.03,2.31-0.37c0.32-0.52,0.07-1.57-0.35-2.15c-1.04-1.45-2.31-2.76-3.46-4.1
			c1.48-2.49,3.05-4.85,4.32-7.34c2.15-4.22,3.57-8.62,1.86-13.25c-2.6-7.04-7.34-12.86-13.86-17.44
			c-8.08-5.68-16.95-6.72-26.2-2.46c-4.72,2.17-7.81,5.81-9.57,10.27c-0.42,1.07-0.85,1.85-2.48,1.92c-2.48,0.1-3.26,1.83-1.71,3.63
			c1.21,1.4,2.68,2.63,4,3.9c-0.53,1.06-1.85,2.42-1.54,3.35c0.65,1.9-1.16,2.62-1.62,3.92c-0.22,0.63-1.12,1.06-1.41,1.69
			c-1.24,2.69-2.39,5.4-3.49,8.13c-0.18,0.45-0.01,1.06,0.16,1.55c0.37,1.06,0.84,2.1,1.27,3.15c-0.14,0.04-0.27,0.08-0.41,0.12
			c-1.35-1.58-2.7-3.15-4.3-5.02c-3.12,3.78-8.21,5.91-7.87,11.18c-9.73,0.8-9.73,0.8-11.91,3.1c1.66,1.69,0.89,3.14-0.67,4.48
			c-2.45,2.1-5.13,4.03-7.34,6.31c-5.7,5.88-6.78,12.97-6.2,20.38c0.33,4.18,1.29,8.39,1.04,12.54c-0.36,5.99-1.51,11.95-2.4,17.92
			c-0.74,4.92,1.3,8.03,6.67,9.38c1.68,0.42,2.09,1.06,1.92,2.41c-0.56,4.39-1.04,8.79-1.64,13.18c-0.17,1.25,0.05,1.85,1.68,1.95
			c3.51,0.21,7.01,0.58,10.5,0.95c14.06,1.49,28.15,1.27,42.24,0.7c1.67-0.07,3.33-0.24,5.47-0.39c-1.15,3.7-2.37,6.9-3.07,10.2
			c-0.32,1.47-0.81,2.01-2.38,2.02c-10.08,0.04-20.16,0.15-30.24,0.13c-3.76-0.01-7.53-0.32-11.7-0.57
			c-3.49-0.36-6.99-0.65-10.46-1.09c-3.27-0.42-3.08-0.45-3.46,2.45c-0.4,2.97-0.64,6.15-2.04,8.78c-2.56,4.78-2.84,4.72,2.96,6.07
			c1.99,0.46,3.54,0.61,3.03-1.99c1.1-0.08,1.99-0.14,2.93,0.15c-0.16,1.19-0.4,2.38-0.47,3.58c-0.08,1.22,0.5,1.92,2.46,1.62
			c3.06-0.27,6.11-0.57,9.18-0.79c0.58-0.04,1.2,0.26,1.74,0.8c0.48,6.97,0.95,13.94,1.19,21.18c-0.59,0.52-1.1,1.38-1.78,1.5
			c-4.37,0.78-8.77,1.41-13.15,1.69c-0.57-7.23-1.09-14.45-1.74-21.67c-0.27-3.04-2.37-4.44-6.55-4.17
			c-0.54,4.03-1.64,8.17-1.53,12.29c0.24,8.98,1.22,17.94,1.63,26.92c0.16,3.43-0.23,6.91-0.73,10.33
			c-0.35,2.39-1.33,4.71-2.05,7.14c0.5,0.08,0.81,0.17,1.13,0.17c13.03,0.01,26.05,0.03,39.08-0.04c0.75,0,1.87-0.64,2.18-1.23
			c3.54-6.78,6.95-13.61,10.64-20.59c0.1-0.26,0.2-0.52,0.5-0.83c0.25,0.04,0.5,0.09,0.74,0.47c-0.84,2.02-1.71,4.03-2.52,6.06
			c-1.81,4.51-4.64,8.79-3.48,13.95c0.37,1.66,0.89,2.3,2.9,2.29c11.07-0.09,22.14-0.04,33.21-0.05c0.71,0,1.41-0.09,2.52-0.16
			c-0.93-10.53-1.85-20.89-2.82-31.75c3.12,2.2,3.66,0.16,4.2-1.55c0.39-1.23,0.21-2.61,0.68-3.8c4.02-9.99,8.15-19.94,12.2-29.92
			c1.51-3.73,2.88-7.5,4.6-11.43c2.86-7.05,5.73-14.11,8.83-21.39c1.18-2.75,2.46-5.46,3.47-8.26c0.23-0.64-0.3-2.07-0.81-2.21
			c-0.85-0.23-2.65,0.05-2.85,0.52c-1.83,4.2-3.39,8.5-5.23,13.03c-1.15,2.61-2.37,5.19-3.42,7.83c-1.51,3.78-2.9,7.6-4.6,11.64
			c-5.52,13.5-11.05,27-16.57,40.51c-0.34-0.02-0.67-0.03-1.01-0.05c-0.29-1.08-0.58-2.16-0.87-3.27c0.97-0.2,1.59-0.33,2.43-0.5
			c-0.31-0.85-0.57-1.59-0.86-2.32c-1.18-2.98-1.83-5.92-0.29-9.03c1.14-2.3,1.9-4.74,3.1-7.31c0.87-2.26,1.73-4.52,2.84-7.01
			c2.2-5.26,4.42-10.52,6.59-15.79c3.47-8.46,6.94-16.93,10.31-25.42c0.4-1.01,0.17-2.21,0.25-3.7c4.77-1.6,10.25-3.44,16.39-5.51
			c-0.9,2.5-1.53,4.23-2.18,6.01c1.97,0,3.74,0,5.58,0c0.41-2.12,0.72-4.12,1.23-6.08c0.17-0.67,0.69-1.56,1.32-1.81
			c2.55-1.02,5.2-1.83,7.98-2.77c1.12,2.23,2.24,4.55,3.44,6.82c0.25,0.48,0.83,0.82,1.26,1.23c0.17-0.68,0.69-1.5,0.43-2.01
			c-1.32-2.62-2.84-5.15-4.34-7.8c0.18-0.23,0.45-0.59,0.73-0.95c1.82-2.28,1.86-3-0.27-5.04c-0.6-0.58-1.72-0.74-2.6-1.09
			c-0.7-0.28-1.39-0.55-1.69-0.84c0.51-0.22,1.03-0.43,1.55-0.65c-0.36-0.41-0.72-0.82-1.06-1.23c-0.29-0.35-0.58-0.71-0.87-1.06
			c0.46-0.19,0.96-0.59,1.38-0.54c2.6,0.3,3.41-0.74,3.01-3.13c0.02-0.09,0.03-0.18,0.51-0.3c2.93-0.19,5.86-0.38,8.89-0.86
			c-0.28-0.91-0.57-1.82-0.86-2.94c0.02-0.15,0-0.29,0.31-0.49c2.16-1.66,2.01-3.23-0.44-4.88c-0.35-1.9-0.7-3.79-1-6.09
			c0.02-3.46,0.03-6.91,0.04-10.37c0.03-9.26-2.19-18.19-5.15-27c-0.82-2.43-2.03-4.75-3.06-7.13c-0.37,0.04-0.74,0.07-1.11,0.11
			c-0.11,0.79-0.41,1.6-0.31,2.37c0.35,2.65,0.84,5.29,1.2,8.32c-0.05,3.14-0.05,3.14-3.5,3.15c-1.26,0-2.52,0-3.78,0
			c0.01,0.08,0.01,0.15,0.02,0.23c2.56,0.22,5.13,0.43,7.74,1.06c0.02,10.52,0,21.04,0.11,31.55c0.02,1.93,0.43,3.89,0.94,5.78
			c0.59,2.18,1.72,2.54,3.89,1.85c0.32,0.74,0.65,1.49,0.76,2.5c-0.39,0.32-0.77,0.92-1.17,0.93c-3.03,0.07-6.08,0.16-9.09-0.06
			c-1.51-0.11-2.47-0.96-2.34-2.68c0.2-2.67,0.01-5.37,0.06-8.44C305.86,222.61,305.85,221.58,305.88,220.15z M194.66,291.03
			c-3.68-1.65-12.61-2.35-13.79-0.88c5.42,0.61,10.71,1.32,16.03,1.73c1.82,0.14,3.72-0.47,6.02-0.74c2.23,0.15,4.45,0.3,6.68,0.45
			c0.01-0.27,0.02-0.54,0.03-0.8c-1.42,0-2.83-0.02-4.25,0C201.93,290.87,198.47,290.97,194.66,291.03z M295.77,201.36
			c0,0,0.24,0,0.25,0.4c0.02,1.35,0.04,2.71,0.28,4.35c0.12,0.81,0.25,1.63,0.42,2.79c-3.76,0-7.15,0-10.54,0
			c2.72,0.62,2.82,2.3,2.72,4.18c-0.09,1.68-0.02,3.36-0.02,5.07c3.12,0,5.79,0,8.63,0c0.1-1.69,0.19-3.24,0.28-4.8
			c1.24-0.11,2.21-0.19,3.77-0.32c0-2.19,0.3-4.38-0.06-6.49c-0.72-4.17-0.92-8.18,1.59-12.01c0.64-0.98,0.31-2-1.33-2.17
			c-1.7-0.17-3.4-0.36-5.34-0.3c-0.44,1.87-1.66,2.51-3.84,2.28c-2.06-0.22-4.17-0.05-6.65-0.05c1.41,0.6,2.31,0.98,2.88,1.43
			c-0.34,0.02-0.67,0.03-1.36,0.07c-2.63,1.21-3.77,2.93-3.47,5.3c0.22,1.77,1.46,2.61,3.71,2.93c1.13,0.12,2.25,0.23,3.65,0.41
			c0.09,0.02,0.18,0.04,0.54,0.16C294.26,204.57,294.54,202.64,295.77,201.36z M294,181.3c4.58-0.37,9.17-0.75,13.75-1.12
			c-0.04-0.32-0.08-0.65-0.12-0.97c-4.58,0.39-9.17,0.79-14.14,1.13c-0.73,0.3-2.01,0.51-2.1,0.93c-0.71,3.26-1.18,6.56-1.76,9.99
			c2.22,0,3.7,0,4.75,0C294.1,187.84,293.83,184.57,294,181.3z M308.84,305.56c-1.01-8.87-2.03-17.74-3.07-26.89
			c0.03-0.55,0.06-1.11,0.43-1.65c0.88,1.82,1.82,3.63,2.64,5.47c2.3,5.23,4.56,10.47,6.83,16.04c1.67,4.07,3.33,8.15,4.98,12.55
			c2.54,6.23,5.17,12.44,7.58,18.71c1.3,3.37,2.35,6.83,3.26,10.31c0.83,3.17,1.61,3.86,5.12,3.05c4.29,10.48,8.59,21.02,12.9,31.57
			c2.98,0,5.89,0,8.93,0c-0.2-0.75-0.29-1.39-0.53-1.99c-3.96-9.76-7.88-19.54-11.97-29.26c-0.87-2.06-1.31-3.6,2.23-4.22
			c-1.27-2.25-2.61-4.21-3.51-6.31c-2.52-5.86-4.85-11.79-7.29-17.68c-1.6-3.85-3.26-7.67-4.89-11.84c-1.64-3.8-3.28-7.6-4.87-11.74
			c-1.75-4.49-3.46-8.99-5.25-13.47c-1.74-4.34-3.57-8.65-5.32-12.99c-0.65-1.6-2.11-1.29-3.17-0.84c-0.52,0.22-0.85,1.6-0.6,2.25
			c1.72,4.42,3.61,8.79,5.45,13.17c1.95,4.66,3.91,9.31,5.86,14.3c1.65,3.96,3.31,7.92,4.95,12.2c3.84,9.41,7.71,18.82,11.48,28.26
			c0.2,0.51-0.22,1.63-0.71,1.85c-1.39,0.64-2.97,0.96-4.59,1.45c-2.16-5.31-4.2-10.4-6.3-15.46c-1.87-4.53-3.81-9.03-5.74-13.88
			c-0.37-1.01-0.68-2.04-1.11-3.02c-1.25-2.91-2.55-5.8-3.83-9.03c-0.7-1.69-1.41-3.37-2.09-5.06c-3.36-8.43-6.68-16.87-10.06-25.3
			c-0.92-2.29-2.3-2.6-4.58-1.2c-0.63,0.39-1.32,0.69-2.07,1.08c0.33,1.79,0.65,3.5,0.93,5.6c0.38,3.04,0.75,6.08,1.08,9.52
			c0.86,7.57,1.71,15.13,2.57,22.69c0.25,2.22,0.54,4.44,0.77,7.02c0.55,4.35,1.1,8.69,1.6,13.42c0.33,2.99,0.66,5.98,1,9.08
			c-1.46,0.17-2.68,0.22-3.84,0.48c-2.18,0.5-2.9-0.29-3.05-2.13c-0.19-2.36-0.63-4.71-0.9-7.45c-0.38-3.18-0.76-6.36-1.08-9.93
			c-0.76-7.47-1.48-14.94-2.3-22.41c-0.43-3.93-1.04-7.85-1.53-12.16c-0.38-3.71-0.77-7.42-1.15-11.13
			c-0.28-0.01-0.56-0.01-0.85-0.02c-0.75,2.78-2.03,5.54-2.11,8.33c-0.11,3.87,0.68,7.76,1.03,12.02c0.02,0.79-0.02,1.59,0.07,2.38
			c0.68,5.95,1.36,11.89,2.11,17.83c0.51,4.07,1.13,8.14,1.65,12.59c0.39,3.32,0.77,6.64,1.11,10.33c0,2.45,0,4.91,0,7.34
			c3.8,0.2,3.66,0.21,4,3.33c0.48,4.37,1.19,8.71,1.76,13.45c0.63,6.17,1.26,12.33,1.89,18.52c3.2,0,6.02,0,9.11,0
			c-0.71-6.16-1.4-12.18-2.04-18.56c-0.67-5.8-1.35-11.59-2.02-17.36c3.61-0.59,3.64-0.59,3.14-3.52c-0.3-1.75-0.84-3.46-1.1-5.21
			c-0.68-4.58-1.26-9.17-1.83-14.14C309.55,312.58,309.16,309.27,308.84,305.56z M310.83,202.26c0.03-0.86,0.09-1.72,0.06-2.58
			c-0.02-0.78-0.14-1.56-0.21-2.34c-0.18,0.02-0.35,0.03-0.53,0.05c0,2.21,0,4.41,0,6.62c0.17,0,0.35,0.01,0.52,0.01
			C310.72,203.56,310.77,203.1,310.83,202.26z"/>
		<path class="st1" d="M201,340.33c-0.47-6.97-0.95-13.94-1.19-21.1c2.08-0.32,4.02-0.23,5.93-2.15c-1.81,0-2.93,0.13-4-0.04
			c-1.02-0.16-1.98-0.61-2.97-0.94c0.05-0.18,0.11-0.36,0.16-0.54c0.88,0,1.76,0,2.77,0.1c3.02,0.44,5.9,0.81,8.79,1.07
			c0.41,0.04,0.89-0.48,1.54-0.74c1.06-0.07,1.92-0.13,2.78-0.2c-0.45-4.18-2.35-6.18-6.3-7.33c-2.66-0.78-6.04-1.09-7.06-3.79
			c-1.19-3.12-3.06-4.8-6.85-4.59c-0.15,0.01-0.3-0.1-0.45-0.16c3.76,0.17,7.52,0.48,11.29,0.49c10.08,0.02,20.16-0.09,30.24-0.13
			c1.57-0.01,2.06-0.55,2.38-2.02c0.71-3.29,1.92-6.5,3.07-10.2c-2.14,0.16-3.8,0.33-5.47,0.39c-14.1,0.57-28.19,0.79-42.24-0.7
			c-3.49-0.37-6.99-0.74-10.5-0.95c-1.63-0.1-1.85-0.71-1.68-1.95c0.6-4.39,1.08-8.79,1.64-13.18c0.17-1.35-0.24-1.99-1.92-2.41
			c-5.37-1.35-7.41-4.46-6.67-9.38c0.89-5.96,2.04-11.92,2.4-17.92c0.25-4.15-0.71-8.35-1.04-12.54c-0.58-7.42,0.5-14.5,6.2-20.38
			c2.21-2.28,4.89-4.21,7.34-6.31c1.56-1.34,2.33-2.79,0.67-4.48c2.18-2.3,2.18-2.3,11.91-3.1c-0.35-5.26,4.74-7.4,7.87-11.18
			c1.6,1.87,2.95,3.44,4.3,5.02c0.14-0.04,0.27-0.08,0.41-0.12c-0.43-1.05-0.9-2.08-1.27-3.15c-0.17-0.49-0.34-1.11-0.16-1.55
			c1.1-2.73,2.25-5.45,3.49-8.13c0.29-0.63,1.19-1.06,1.41-1.69c0.45-1.3,2.26-2.02,1.62-3.92c-0.32-0.93,1.01-2.3,1.54-3.35
			c-1.32-1.27-2.79-2.5-4-3.9c-1.55-1.8-0.77-3.52,1.71-3.63c1.63-0.07,2.06-0.85,2.48-1.92c1.76-4.46,4.85-8.1,9.57-10.27
			c9.25-4.26,18.12-3.22,26.2,2.46c6.52,4.58,11.26,10.4,13.86,17.44c1.71,4.62,0.3,9.03-1.86,13.25c-1.27,2.49-2.84,4.85-4.32,7.34
			c1.15,1.33,2.42,2.65,3.46,4.1c0.42,0.59,0.67,1.63,0.35,2.15c-0.25,0.4-1.66,0.6-2.31,0.37c-2.39-0.86-4.68-1.94-7.59-3.19
			c-0.6,2.08-1.47,4.09-1.72,6.15c-0.38,3.18-0.67,3.54-4.25,3.39c-0.57-0.02-1.39,0.36-1.71,0.78c-1.36,1.78-2.55,3.6-5.17,4.24
			c-0.7,0.17-1.32,1.05-1.71,1.73c-1.6,2.81-2.81,3.22-5.99,1.86c-0.69-0.29-1.4-0.55-2.34-0.47c3.13,3.29,6.37,6.51,9.38,9.88
			c7.49,8.4,9.28,17.99,7.02,28.27c-0.22,1.01-1.85,1.78-2.78,2.62c2.6,0,5.44-0.31,8.16,0.08c3.43,0.49,6.79,1.45,10.1,2.43
			c0.71,0.21,1.67,1.62,1.45,2.01c-0.41,0.72-1.52,1.34-2.47,1.55c-1.15,0.26-2.43,0.06-3.77,0.06c-0.26,1.14,1,3.25-2.01,2.81
			c-0.04-0.01-0.44,0.9-0.28,1.05c1.41,1.28,0.1,1.42-0.76,2.17c-1.14,0.98-1.72,2.47-2.8,4.13c1.23-0.38,2.3-0.6,3.25-1.02
			c2.98-1.31,6.36-1.97,7.97-5.2c1-1.98,2.63-0.8,3.78,0.51c7.81-3.07,15.54-6.1,23.42-9.19c-0.12-1.01-0.24-1.96-0.32-2.66
			c-2.93,0-5.67-0.02-8.41,0.01c-0.63,0.01-1.34,0.04-1.88,0.29c-3.45,1.62-4.16,1.25-4.18-2.69c9.15,0,18.3,0,27.45,0
			c0-0.23-0.01-0.47-0.01-0.7c-2.08,0-4.15,0-6.23,0c-5.17,0-10.34,0.02-15.5-0.04c-0.46-0.01-1.93,0.75-1.09-0.86
			c0.92-0.44,1.5-0.84,2.1-1.06c0.41,0.46,0.79,0.99,1.19,0.99c3.76,0.06,7.52,0.07,11.28-0.01c0.41-0.01,0.8-0.66,1.16-1.18
			c-0.14-0.82-0.25-1.47-0.24-2.21c0.19-0.34,0.27-0.6,0.49-0.78c0.38,0.46,0.62,0.85,0.86,1.42c0.22,1.06,0.45,1.95,0.88,2.82
			c1.47-0.27,2.74-0.52,4.02-0.97c-0.02-0.71-0.05-1.22-0.05-1.82c0.02-0.08,0.13-0.21,0.21-0.31c0.48-0.12,1.18-0.22,1.21-0.13
			c0.27,0.78,0.43,1.6,0.62,2.4c0.7,0.28,1.39,0.55,2.09,0.83c0.88,0.35,2,0.51,2.6,1.09c2.13,2.03,2.09,2.76,0.27,5.04
			c-0.28,0.35-0.55,0.72-0.73,0.95c1.5,2.65,3.02,5.18,4.34,7.8c0.26,0.51-0.27,1.33-0.43,2.01c-0.43-0.41-1-0.75-1.26-1.23
			c-1.21-2.28-2.33-4.59-3.44-6.82c-2.78,0.94-5.44,1.75-7.98,2.77c-0.63,0.25-1.14,1.14-1.32,1.81c-0.51,1.96-0.82,3.96-1.23,6.08
			c-1.84,0-3.61,0-5.58,0c0.64-1.78,1.27-3.52,2.18-6.01c-6.14,2.06-11.62,3.9-16.39,5.51c-0.08,1.49,0.15,2.7-0.25,3.7
			c-3.37,8.5-6.83,16.96-10.31,25.42c-2.16,5.27-4.39,10.53-6.72,15.73c-0.3-2.94-0.75-3.31-2.99-2.51
			c4.31-10.72,8.63-21.28,13.05-32.08c-2.28,0.83-3.93,1.69-5.69,2c-1.89,0.33-2.33,1.14-1.86,2.54c0.49,1.44-0.39,1.96-1.67,2.38
			c-2.52,0.81-5.04,1.63-7.53,2.5c-1.87,0.65-3.38,0.85-3.42-1.59c0-0.3-0.48-0.59-0.74-0.89c0.19,2.74,0.62,5.36,1.42,7.89
			c2.27,7.19,2.52,14.39,0.74,21.68c-0.59,2.42-0.64,4.87,0.51,7.9c0.73-1.59,1.16-2.56,1.7-3.39c1.23,0.38,2.35,0.61,3.48,0.84
			c-0.93,2.38-1.69,4.82-2.82,7.11c-1.54,3.11-0.89,6.05,0.29,9.03c0.29,0.73,0.55,1.47,0.86,2.32c-0.84,0.17-1.46,0.3-2.43,0.5
			c0.3,1.12,0.59,2.19,0.87,3.27c0.34,0.02,0.67,0.03,1.01,0.05c5.52-13.5,11.05-27,16.79-40.48c2.15,1.58,3.05,0.06,4.12-0.99
			c-1.44,3.75-2.81,7.52-4.32,11.25c-4.05,9.98-8.18,19.93-12.2,29.92c-0.48,1.19-0.3,2.57-0.68,3.8c-0.54,1.71-1.08,3.75-4.2,1.55
			c0.96,10.86,1.88,21.22,2.82,31.75c-1.11,0.07-1.82,0.16-2.52,0.16c-11.07,0.01-22.14-0.03-33.21,0.05
			c-2.01,0.02-2.53-0.62-2.9-2.29c-1.16-5.15,1.67-9.43,3.48-13.95c0.81-2.03,1.68-4.04,2.65-6.34c1.44-3.62,2.74-6.96,4.04-10.3
			c-0.28-0.08-0.56-0.17-0.83-0.25c-1.43,3.47-2.85,6.94-4.28,10.41c-0.1,0.26-0.2,0.52-0.46,0.68c-0.31-0.96-0.67-1.84-0.57-2.67
			c0.33-3.02-2.48-4.61-4.16-6.42c-2.08-2.25-2.8-4.68-0.34-6.64c0.67-0.53,1.43-1.02,1.94-1.65c0.46-0.57,0.97-1.37,0.84-1.96
			c-0.09-0.41-1.23-0.87-1.92-0.9c-5.42-0.21-10.84-0.45-16.26-0.39c-1.59,0.02-3.61,0.58-4.62,1.56c-0.94,0.91-0.87,2.69-1.12,4.1
			c-0.25,1.41-0.35,2.85-0.51,4.09C201.02,341.3,201.01,340.82,201,340.33z M256.66,169.87c-0.08,0.92-0.15,1.84-0.23,2.76
			c0.27,0.07,0.54,0.14,0.8,0.21c0.87-1.37,1.73-2.74,2.6-4.11c-0.21-0.12-0.41-0.23-0.62-0.35c-0.53,0.13-1.06,0.26-1.84,0.15
			c-0.6-0.56-1.21-1.12-2.15-1.99c-0.73,1.29-1.38,2.44-2.03,3.59c0.18,0.15,0.36,0.29,0.54,0.44
			C254.72,170.21,255.72,169.87,256.66,169.87z M211.85,207.56c-3.87-3.2-8.36-4.59-13.71-3.55c5.07-0.06,9.45,1.4,13.27,4.71
			c3.66,3.71,5.03,8.1,4.36,12.9c-1.01,7.29-3.66,14.19-6.92,20.91c-1.57,3.23-3.41,6.37-5.03,9.58c-0.45,0.9-1.36,2,0.28,3.1
			c0.29-0.69,0.44-1.16,0.69-1.59c5.59-9.66,9.99-19.71,12.1-30.44C218.03,217.41,217.02,212.09,211.85,207.56z M240,253.6
			c0.86-0.27,1.73-0.54,2.59-0.81c-0.04-0.18-0.09-0.36-0.13-0.55c-3.05,0.13-6.1,0.26-9.26,0.39c-0.06-0.28-0.2-0.63-0.18-0.96
			c0.06-0.94,0.13-1.88,0.31-2.81c1.91-10.28-0.02-20.05-5.45-29.2c-1.83-3.08-3.79-6.55-8.74-7.16c0.11,0.92,0.21,1.71,0.31,2.49
			c0.58,5.04,1.7,10.08,1.61,15.11c-0.14,7.29-1.24,14.57-1.75,21.86c-0.14,2.04-1.21,2.6-3.19,2.58c-1.69-0.01-3.37,0-5.06,0
			c0.02,0.25,0.04,0.5,0.06,0.75c8.3-0.57,16.59-1.14,24.89-1.68C237.21,253.54,238.42,253.65,240,253.6z M238.98,318.96
			c4.24-0.94,4.23-0.95,4.52-4.88c0.07-0.94,0.28-1.87,0.34-2.81c0.06-0.87,0.01-1.74,0.01-2.61c-0.29-0.03-0.58-0.07-0.86-0.1
			c-0.54,1.81-1.55,3.63-1.51,5.43c0.05,2.8-1.87,3.28-4.17,3.74c-1.56,0.31-3.1,0.7-4.65,1.06c0.06,0.25,0.12,0.51,0.19,0.76
			C234.75,319.38,236.66,319.21,238.98,318.96z M235.04,160.12c-2.88-1.68-5.76-3.37-8.56-5c0.25,0.53,0.41,1.63,1.12,2.23
			c1.21,1.01,2.72,1.78,4.18,2.53c2.95,1.51,5.96,2.94,8.94,4.41c0.18-0.24,0.35-0.48,0.53-0.73
			C239.28,162.47,237.32,161.38,235.04,160.12z M250.37,298.4c0.16,1.64,0.21,3.3,0.5,4.92c0.29,1.57,0.83,3.11,1.27,4.66
			c0.88-6.56-0.37-11.44-3.12-12.4C249.49,296.6,249.83,297.34,250.37,298.4z M249.88,170.21c2.81,2.65,5.63,5.31,8.44,7.96
			c0.2-0.16,0.39-0.32,0.59-0.48C256.59,174.66,253.81,171.99,249.88,170.21z M242.86,269.85c0.3-0.74,0.67-1.46,0.89-2.22
			c0.39-1.32-0.22-1.84-2.01-1.57c0,1.05,0,2.04,0,3.03c0,0.36-0.04,0.73,0.08,1.06C241.85,270.23,242.42,270.15,242.86,269.85z
			 M218.54,317.09c-1.58-0.11-3.16-0.21-4.74-0.32c-0.03,0.23-0.05,0.47-0.08,0.7c2.09,0.21,4.18,0.43,6.27,0.64
			c0.05-0.17,0.1-0.35,0.16-0.52C219.74,317.45,219.33,317.32,218.54,317.09z"/>
		<path class="st2" d="M201.03,342.14c0.16-1.42,0.26-2.86,0.51-4.27c0.25-1.41,0.18-3.19,1.12-4.1c1.01-0.98,3.03-1.54,4.62-1.56
			c5.42-0.05,10.84,0.18,16.26,0.39c0.69,0.03,1.82,0.49,1.92,0.9c0.13,0.59-0.38,1.39-0.84,1.96c-0.52,0.63-1.27,1.12-1.94,1.65
			c-2.46,1.96-1.74,4.39,0.34,6.64c1.67,1.81,4.49,3.41,4.16,6.42c-0.09,0.84,0.27,1.71,0.45,2.75c-3.42,7-6.83,13.83-10.36,20.61
			c-0.31,0.6-1.43,1.23-2.18,1.23c-13.03,0.07-26.05,0.05-39.08,0.04c-0.31,0-0.63-0.09-1.13-0.17c0.72-2.42,1.69-4.74,2.05-7.14
			c0.5-3.42,0.89-6.89,0.73-10.33c-0.41-8.98-1.39-17.94-1.63-26.92c-0.11-4.12,1-8.27,1.53-12.29c4.18-0.27,6.28,1.13,6.55,4.17
			c0.64,7.22,1.17,14.45,1.71,22.02c-0.03,0.44-0.04,0.54-0.02,0.79c0.04,0.65,0.07,1.15,0.05,1.66c-0.11,3.06,0.86,3.65,4.03,2.66
			c2.6-0.82,5.26-1.51,7.94-2.13c3.05-0.71,3.56-1.4,2.77-4.23C200.77,342.57,200.9,342.35,201.03,342.14z"/>
		<path class="st1" d="M332.47,303.74c1.64,3.83,3.3,7.66,4.9,11.5c2.44,5.89,4.76,11.82,7.29,17.68c0.91,2.1,2.24,4.06,3.51,6.31
			c-3.54,0.62-3.1,2.16-2.23,4.22c4.09,9.72,8.01,19.5,11.97,29.26c0.24,0.6,0.34,1.25,0.53,1.99c-3.03,0-5.95,0-8.93,0
			c-4.31-10.55-8.62-21.08-12.9-31.57c-3.51,0.81-4.29,0.12-5.12-3.05c-0.9-3.47-1.96-6.93-3.26-10.31
			c-2.41-6.27-5.04-12.47-7.42-18.82c2.12,0.31,2.5-0.91,2.88-2.14c1.91,4.52,3.85,9.02,5.72,13.55c2.1,5.07,4.14,10.15,6.3,15.46
			c1.62-0.48,3.2-0.81,4.59-1.45c0.49-0.22,0.91-1.35,0.71-1.85c-3.77-9.44-7.63-18.84-11.33-28.39
			C331.63,306.11,332.27,305.13,332.47,303.74z"/>
		<path class="st2" d="M193.94,299.88c0.36,0.1,0.51,0.21,0.66,0.2c3.79-0.22,5.66,1.46,6.85,4.59c1.03,2.7,4.4,3.01,7.06,3.79
			c3.95,1.16,5.85,3.16,6.3,7.33c-0.86,0.07-1.72,0.13-3,0.2c-3.7-0.14-6.97-0.28-10.25-0.42c-0.88,0-1.76,0-2.64,0
			c-0.05,0.18-0.11,0.36-0.16,0.54c0.99,0.33,1.95,0.78,2.97,0.94c1.07,0.16,2.19,0.04,4,0.04c-1.9,1.92-3.85,1.83-5.9,1.96
			c-0.8-0.15-1.42-0.45-2-0.41c-3.06,0.21-6.12,0.51-9.34,0.62c0.33-1.72,0.82-3.27,1.44-5.22c-0.9-0.05-2.1-0.11-3.31-0.17
			c-0.89,0.06-1.77,0.13-2.87,0.2c0.51,2.6-1.04,2.45-3.03,1.99c-5.8-1.35-5.52-1.29-2.96-6.07c1.41-2.63,1.65-5.81,2.04-8.78
			c0.39-2.9,0.19-2.86,3.46-2.45C186.74,299.2,190.24,299.49,193.94,299.88z"/>
		<path class="st1" d="M317.66,231.07c-2.17,0.99-3.3,0.63-3.89-1.54c-0.51-1.89-0.92-3.85-0.94-5.78
			c-0.11-10.52-0.09-21.04-0.12-31.95c-0.14-1.74-0.28-3.09-0.41-4.43c-0.44-2.64-0.92-5.28-1.27-7.94
			c-0.1-0.77,0.19-1.58,0.31-2.37c0.37-0.04,0.74-0.07,1.11-0.11c1.03,2.37,2.25,4.7,3.06,7.13c2.96,8.81,5.17,17.74,5.15,27
			c-0.01,3.45-0.03,6.91-0.15,10.72c-0.55,1.91-0.94,3.48-1.47,5.01c-0.34,1-0.88,1.95-1.34,3.05c0.01,0.29,0.02,0.45,0.01,0.76
			C317.68,230.87,317.67,230.97,317.66,231.07z"/>
		<path class="st3" d="M300.02,324.59c0.33,2.35,0.77,4.7,0.96,7.06c0.15,1.85,0.87,2.64,3.05,2.13c1.16-0.27,2.39-0.31,3.84-0.48
			c-0.34-3.09-0.67-6.08-0.87-9.18c2.22,0.29,3.37-0.77,3.22-2.9c-0.12-1.65-0.22-3.3-0.33-4.94c0.62,4.59,1.2,9.18,1.88,13.76
			c0.26,1.75,0.79,3.46,1.1,5.21c0.5,2.93,0.47,2.93-3.14,3.52c0.67,5.77,1.34,11.56,1.91,17.42c-0.77-0.51-1.48-1.6-2.08-1.55
			c-2.27,0.19-4.5,0.74-6.74,1.16c-0.61-4.35-1.32-8.7-1.8-13.06c-0.34-3.12-0.2-3.13-4-3.33c0-2.43,0-4.88,0.19-7.56
			c2.27-0.85,3.44-1.88,2.87-4.05C299.81,326.77,300.03,325.66,300.02,324.59z"/>
		<path class="st4" d="M296.65,191.81c1.7,0.18,3.4,0.38,5.1,0.54c1.64,0.16,1.97,1.18,1.33,2.17c-2.51,3.83-2.31,7.84-1.59,12.01
			c0.37,2.11,0.06,4.31,0.06,6.49c-1.56,0.13-2.53,0.22-3.77,0.32c-0.09,1.56-0.18,3.11-0.28,4.8c-2.84,0-5.51,0-8.63,0
			c0-1.71-0.07-3.39,0.02-5.07c0.1-1.87,0-3.55-2.72-4.18c3.39,0,6.79,0,10.54,0c-0.18-1.16-0.3-1.97-0.36-3.05
			C296.5,200.99,296.58,196.4,296.65,191.81z"/>
		<path class="st5" d="M302.8,355.98c2.26-0.61,4.49-1.16,6.76-1.35c0.6-0.05,1.31,1.04,2.05,1.74c0.77,6.14,1.46,12.15,2.18,18.32
			c-3.09,0-5.9,0-9.11,0C304.05,368.5,303.42,362.34,302.8,355.98z"/>
		<path class="st3" d="M315.67,298.2c-2.27-5.24-4.53-10.48-6.83-15.71c-0.81-1.85-1.75-3.65-2.71-5.63c1.72-3.44-0.63-7.18-4.9-7.5
			c-0.11,0.6-0.21,1.21-0.32,1.82c-0.32-1.71-0.64-3.42-0.97-5.21c0.75-0.39,1.44-0.69,2.07-1.08c2.29-1.41,3.66-1.1,4.58,1.2
			c3.38,8.43,6.7,16.87,10.06,25.3c0.67,1.69,1.39,3.37,1.91,5.27C317.48,297.31,316.57,297.75,315.67,298.2z"/>
		<path class="st3" d="M295.96,321.33c-0.57-4.07-1.19-8.13-1.7-12.2c-0.75-5.94-1.42-11.89-2.11-17.83
			c-0.09-0.79-0.05-1.59,0.12-2.61c2.72-0.96,3.58-2.4,3.01-4.73c-0.3-1.24-0.12-2.57-0.16-3.86c0.53,3.93,1.14,7.84,1.57,11.78
			c0.82,7.46,1.54,14.94,2.13,22.57c-2.28,0.21-2.96,1.3-2.88,3C296,318.74,295.96,320.04,295.96,321.33z"/>
		<path class="st3" d="M324.59,293.76c-1.96-4.66-3.92-9.31-5.87-13.97c-1.84-4.38-3.73-8.75-5.45-13.17
			c-0.25-0.65,0.08-2.02,0.6-2.25c1.06-0.46,2.52-0.77,3.17,0.84c1.75,4.34,3.58,8.65,5.32,12.99c1.79,4.48,3.5,8.98,5.07,13.69
			C326.36,292.65,325.47,293.2,324.59,293.76z"/>
		<path class="st3" d="M305.79,278.95c1.01,8.87,2.03,17.74,2.92,26.74c-0.55,0.14-1.09,0.02-1.38,0.2
			c-1.77,1.11-2.12,2.76-2.01,4.55c-0.27-2.22-0.56-4.44-0.81-6.66c-0.86-7.56-1.71-15.13-2.44-22.81c0.71-0.2,1.41-0.14,1.86-0.41
			C304.64,280.14,305.18,279.5,305.79,278.95z"/>
		<path class="st6" d="M280.49,296.3c-1.2,1.14-2.11,2.66-4.13,0.97c1.36-3.94,2.74-7.76,4.26-11.55c1.05-2.64,2.27-5.22,3.65-8.05
			c1.8-1.02,3.38-1.83,4.95-2.63C286.36,282.09,283.49,289.15,280.49,296.3z"/>
		<path class="st7" d="M321.76,233.13c0.28,0.91,0.57,1.82,0.58,2.88c-6.21,0.17-12.14,0.22-18.07,0.2c-1.1,0-2.21-0.26-3.24-0.57
			c0.21-1.8,0.35-3.42,0.48-5.05c0.11-3.07,0.21-6.14,0.55-9.4c1.4,0.82,2.57,1.83,3.74,2.84c0.03,2.69,0.22,5.38,0.01,8.05
			c-0.13,1.72,0.83,2.58,2.34,2.68c3.01,0.21,6.06,0.12,9.09,0.06c0.4-0.01,0.78-0.61,1.47-1.1
			C319.93,233.4,320.85,233.26,321.76,233.13z"/>
		<path class="st8" d="M305.3,310.62c-0.09-1.97,0.26-3.62,2.03-4.73c0.29-0.18,0.83-0.06,1.35-0.01c0.49,3.39,0.88,6.7,1.24,10.2
			c0.08,1.84,0.18,3.49,0.3,5.13c0.16,2.13-1,3.19-3.19,2.71C306.38,319.5,305.83,315.15,305.3,310.62z"/>
		<path class="st9" d="M295.14,279.9c0.02,1.48-0.16,2.81,0.14,4.05c0.57,2.33-0.29,3.78-2.98,4.54c-0.57-3.84-1.36-7.73-1.25-11.6
			c0.08-2.79,1.36-5.56,2.11-8.33c0.28,0.01,0.56,0.01,0.85,0.02C294.39,272.29,294.78,276,295.14,279.9z"/>
		<path class="st10" d="M309.02,243.63c-0.39-0.8-0.54-1.62-0.82-2.4c-0.03-0.08-0.74,0.02-1.23-0.05c-1.15-1.58-3.5-1.61-4.55-0.03
			c0,0.11,0.01,0.33,0.01,0.32c-0.01-0.01,0.01,0-0.12,0c-0.21-0.01-0.3-0.01-0.38-0.01c-0.24-0.39-0.48-0.78-1.09-1.28
			c-2.51-0.1-4.65-0.09-6.71-0.2c0.36-0.59,0.64-1.06,0.91-1.54c0.06-0.43,0.12-0.87,0.55-1.29c6.1,0.05,11.83,0.09,17.56,0.12
			c0.45,2.12-0.36,3.16-2.95,2.86c-0.43-0.05-0.92,0.35-1.38,0.54c0.29,0.35,0.57,0.71,0.87,1.06c0.35,0.41,0.71,0.82,1.06,1.23
			C310.25,243.19,309.73,243.41,309.02,243.63z"/>
		<path class="st11" d="M279.19,227.08c0.86-2.04,1.65-4.12,2.66-6.1c0.22-0.44,1.25-0.75,1.93-0.78c2.26-0.1,4.53-0.04,7.03,0.09
			c-2.5,2.42-5.23,4.71-8.23,7.22c1.22,0.35,1.7,0.49,2.53,0.73c-0.8,0.61-1.34,1.02-2.1,1.43c-1.37-0.01-2.54-0.01-3.65-0.01
			C279.29,228.62,279.24,227.85,279.19,227.08z"/>
		<path class="st8" d="M295.94,321.53c0.02-1.49,0.06-2.79,0-4.08c-0.08-1.71,0.6-2.8,2.85-2.81c0.52,3.21,0.9,6.39,1.26,9.76
			c-0.02,1.26-0.23,2.37,0.03,3.38c0.57,2.16-0.6,3.2-2.85,3.86C296.68,328.36,296.3,325.04,295.94,321.53z"/>
		<path class="st8" d="M315.66,298.37c0.91-0.61,1.82-1.06,2.9-1.54c1.45,2.86,2.75,5.75,4,8.66c0.43,0.99,0.74,2.02,1.12,3.19
			c-0.37,1.4-0.76,2.62-2.87,2.14C319,306.69,317.33,302.61,315.66,298.37z"/>
		<path class="st8" d="M324.58,293.92c0.89-0.72,1.78-1.28,2.82-1.87c1.8,3.76,3.44,7.56,5.07,11.52c-0.2,1.55-0.84,2.53-2.79,2.42
			C327.88,302.01,326.23,298.05,324.58,293.92z"/>
		<path class="st12" d="M305.78,278.81c-0.6,0.69-1.14,1.33-1.85,1.76c-0.45,0.27-1.14,0.21-1.83,0.22
			c-0.48-3.13-0.86-6.17-1.21-9.4c0.13-0.81,0.24-1.42,0.34-2.02c4.27,0.32,6.62,4.06,4.73,7.5
			C305.83,277.56,305.8,278.12,305.78,278.81z"/>
		<path class="st4" d="M289.34,274.93c-1.7,0.92-3.27,1.72-4.98,2.61c1.51-4.18,3.08-8.47,4.9-12.68c0.2-0.47,2-0.75,2.85-0.52
			c0.51,0.14,1.04,1.57,0.81,2.21C291.92,269.35,290.64,272.07,289.34,274.93z"/>
		<path class="st13" d="M283.22,229.68c0.54-0.41,1.09-0.83,1.89-1.43c-0.83-0.24-1.31-0.38-2.53-0.73c3.01-2.52,5.74-4.8,8.46-7.24
			c1.2-0.15,2.41-0.15,3.8-0.01c-1.49,1.61-3.15,3.07-4.93,4.6c0.29,0.34,0.79,0.56,1.09,0.91c0.28,0.34,0.35,0.82,0.34,1.26
			c-1.47,0.89-2.77,1.75-4.14,2.7c-0.2,0.19-0.33,0.3-0.45,0.4c-1.07,0.1-2.13,0.19-3.37,0.2
			C283.2,230.06,283.21,229.87,283.22,229.68z"/>
		<path class="st14" d="M287.79,195.76c0.34-0.02,0.67-0.03,1.35-0.06c4.49,1.6,5.25,5.35,1.97,8.35c-0.04,0.1-0.06,0.3-0.06,0.3
			c-1.13-0.12-2.25-0.23-3.6-0.53c-0.75-1.85-1.28-3.53-1.87-5.4c1.15,0.36,1.6,0.51,2.05,0.65c0.11-0.41,0.3-0.83,0.31-1.24
			C287.95,197.14,287.84,196.45,287.79,195.76z"/>
		<path class="st8" d="M261.67,305.97c2.23-0.96,2.69-0.59,2.86,2.46c-0.86,2.44-1.73,4.69-2.73,7.05c-1.27-0.13-2.39-0.37-3.6-0.9
			C259.31,311.5,260.49,308.73,261.67,305.97z"/>
		<path class="st15" d="M293.56,181.31c0.27,3.27,0.54,6.53,0.83,9.95c-1.05,0-2.53,0-4.75,0c0.57-3.43,1.05-6.73,1.76-9.99
			c0.09-0.41,1.37-0.62,2.47-0.88c0.93,0.1,1.49,0.15,2.27,0.23C295.08,180.89,294.32,181.1,293.56,181.31z"/>
		<path class="st16" d="M291.15,203.95c3.24-2.9,2.48-6.65-1.85-8.29c-1.07-0.41-1.96-0.79-3.38-1.38c2.47,0,4.59-0.17,6.65,0.05
			c2.19,0.23,3.4-0.41,3.96-2.4c0.05,4.47-0.03,9.07-0.28,13.78c-0.2-1.24-0.22-2.59-0.24-4.34c0-1.71,0.04-3.01,0-4.31
			c-0.08-2.25-0.94-2.67-2.7-1.94c0.76,2.15,1.49,4.2,2.22,6.25c-0.99,1.28-1.27,3.2-3.77,3.08
			C291.49,204.2,291.32,204.08,291.15,203.95z"/>
		<path class="st17" d="M274.4,235.28c-0.24-0.28-0.48-0.56-1.01-1.18c9.06,0,17.78,0,26.7,0.18c-0.59,0.42-1.39,0.86-2.19,0.86
			C290.06,235.23,282.23,235.24,274.4,235.28z"/>
		<path class="st18" d="M294.84,238.44c-0.07,0.48-0.34,0.95-0.93,1.57c-1.36,0.15-2.43,0.07-3.46,0.19
			c-1.09,0.13-2.15,0.46-3.24,0.8c-0.24,0.16-0.57,0.32-0.66,0.25c-0.38-0.32-0.69-0.7-1.02-1.06c-1.32-0.52-1.32-0.52-1.09-2.62
			c2.16,0.26,4.42-0.92,6.49,1.02C291.49,239.11,293.37,238.52,294.84,238.44z"/>
		<path class="st19" d="M321.76,233.02c-0.91,0.24-1.83,0.38-2.93,0.56c-0.52-0.71-0.84-1.45-1.17-2.35
			c0.01-0.26,0.03-0.35,0.22-0.57c0.67-0.22,1.17-0.33,1.66-0.43c-0.61-0.16-1.22-0.32-1.83-0.48c0.45-0.97,0.99-1.92,1.34-2.92
			c0.52-1.53,0.91-3.1,1.44-4.8c0.43,1.74,0.78,3.64,1.1,5.85c-1.38,1.79-1.17,3.22,0.11,4.62
			C321.76,232.62,321.78,232.77,321.76,233.02z"/>
		<path class="st20" d="M185.77,344.79c0.01-0.1,0.01-0.2,0.04-0.45c4.41-0.82,8.81-1.45,13.18-2.23c0.68-0.12,1.19-0.98,1.9-1.64
			c0.13,0.34,0.14,0.82,0.15,1.48c-0.13,0.4-0.25,0.61-0.62,0.96c-1.46,0.64-2.65,1.5-3.92,1.59
			C192.94,344.77,189.35,344.72,185.77,344.79z"/>
		<path class="st21" d="M202.48,291.14c-1.86,0.27-3.76,0.88-5.58,0.74c-5.32-0.41-10.62-1.13-16.03-1.73
			c1.17-1.46,10.1-0.77,14.2,0.9C197.82,291.09,200.15,291.12,202.48,291.14z"/>
		<path class="st22" d="M274.56,235.38c7.67-0.14,15.5-0.16,23.34-0.24c0.8-0.01,1.59-0.45,2.41-0.85c0.35-1.25,0.67-2.34,1.11-3.57
			c-0.03,1.49-0.17,3.11-0.59,4.93c-3.9,0.46-7.52,0.73-11.14,0.99C284.69,236.26,279.71,235.88,274.56,235.38z"/>
		<path class="st23" d="M287.26,229.65c1.3-0.86,2.6-1.72,4.27-2.59c1.58,0,2.79,0.01,4,0.02c1.62,0.48,1.37,1.45,0.46,2.54
			c-1.24,0.13-2.12,0.31-3,0.3C291.09,229.88,289.18,229.75,287.26,229.65z"/>
		<path class="st24" d="M287.61,195.77c0.23,0.68,0.34,1.37,0.32,2.07c-0.01,0.41-0.2,0.83-0.31,1.24c-0.45-0.14-0.9-0.28-2.05-0.65
			c0.59,1.87,1.11,3.55,1.68,5.36c-1.84-0.1-3.08-0.94-3.3-2.71C283.67,198.72,284.8,196.99,287.61,195.77z"/>
		<path class="st25" d="M289.9,236.65c3.4-0.27,7.01-0.54,10.85-0.83c1.32,0.12,2.42,0.38,3.53,0.38
			c5.93,0.02,11.86-0.03,18.02-0.05c-2.71,0.18-5.64,0.37-9.03,0.56c-6.23,0.01-11.99,0.03-17.76,0.05
			C293.71,236.72,291.92,236.69,289.9,236.65z"/>
		<path class="st26" d="M186.65,314.03c1.18-0.11,2.38-0.05,3.28-0.01c-0.62,1.94-1.11,3.49-1.65,5.19
			c-1.58,0.5-2.16-0.21-2.08-1.43C186.28,316.59,186.51,315.4,186.65,314.03z"/>
		<path class="st10" d="M293.78,181.3c0.54-0.21,1.3-0.41,2.35-0.7c-0.78-0.07-1.34-0.13-2.07-0.2c4.4-0.41,8.99-0.81,13.57-1.2
			c0.04,0.32,0.08,0.65,0.12,0.97C303.17,180.55,298.58,180.93,293.78,181.3z"/>
		<path class="st27" d="M302.86,220.09c0.15-1.14,0.2-2.31,0.52-3.42c0.11-0.39,0.88-0.87,1.35-0.86c0.35,0,0.93,0.67,1,1.1
			c0.17,1.06,0.11,2.16-0.03,3.43C304.63,220.38,303.75,220.23,302.86,220.09z"/>
		<path class="st28" d="M295.43,226.98c-1.11,0.09-2.32,0.08-3.73,0.06c-0.36-0.44-0.43-0.92-0.71-1.26
			c-0.29-0.35-0.8-0.57-0.95-0.81c1.18,0,2.1-0.04,3.02-0.07c1.07-0.43,2.14-0.88,3.23-1.27c0.14-0.05,0.4,0.15,0.62,0.25
			C296.36,224.91,295.84,225.9,295.43,226.98z"/>
		<path class="st29" d="M285.53,240.36c0.33,0.2,0.64,0.58,1.02,0.9c0.08,0.07,0.42-0.1,0.87-0.23c0.94,0.22,1.65,0.52,2.35,0.82
			c-0.65,0.36-1.29,0.72-1.94,1.08c-0.21,0.11-0.43,0.2-0.65,0.3c-0.58,0.4-1.17,0.79-1.9,1.22c-0.25-0.5-0.19-1.13-0.5-1.55
			c-0.34-0.46-1-0.74-1.53-1.09c0.61-0.29,1.22-0.57,1.82-0.88C285.26,240.84,285.38,240.67,285.53,240.36z"/>
		<path class="st16" d="M228.29,352.14c1.33-3.45,2.75-6.91,4.18-10.38c0.28,0.08,0.56,0.17,0.83,0.25
			c-1.3,3.34-2.61,6.68-4.04,10.13C228.89,352.2,228.64,352.16,228.29,352.14z"/>
		<path class="st30" d="M293.1,224.75c-0.96,0.18-1.88,0.22-2.94,0.15c1.52-1.56,3.18-3.03,4.9-4.63c0.13,0.42,0.47,1.11,0.22,1.53
			C294.72,222.8,293.88,223.68,293.1,224.75z"/>
		<path class="st31" d="M295.65,201.36c-0.85-2.05-1.58-4.11-2.34-6.25c1.76-0.73,2.62-0.31,2.7,1.94c0.05,1.3,0.01,2.6,0,4.11
			C296.02,201.36,295.77,201.36,295.65,201.36z"/>
		<path class="st14" d="M321.88,232.46c-1.46-1.37-1.67-2.8-0.28-4.41C324.07,229.19,324.22,230.76,321.88,232.46z"/>
		<path class="st32" d="M202.7,291.14c-2.55-0.03-4.88-0.05-7.45-0.08c3.22-0.09,6.67-0.19,10.13-0.27c1.42-0.03,2.83,0,4.25,0
			c-0.01,0.27-0.02,0.54-0.03,0.8C207.37,291.45,205.14,291.3,202.7,291.14z"/>
		<path class="st33" d="M283.01,229.68c0.2,0.2,0.19,0.39,0.17,0.72c-0.83,0.14-1.67,0.25-2.46,0.12c-1.07-0.18-2.09-0.55-3.14-0.84
			c0.46-0.8,0.92-1.6,1.49-2.5c0.17,0.67,0.22,1.43,0.29,2.49C280.47,229.67,281.64,229.67,283.01,229.68z"/>
		<path class="st34" d="M295.51,236.83c5.76-0.09,11.53-0.11,17.53-0.11c0.21,0.11,0.2,0.2,0.15,0.42
			c-5.76,0.1-11.49,0.06-17.44-0.03C295.53,237.06,295.52,236.91,295.51,236.83z"/>
		<path class="st30" d="M310.83,202.45c-0.05,0.65-0.11,1.11-0.16,1.57c-0.17,0-0.35-0.01-0.52-0.01c0-2.21,0-4.41,0-6.62
			c0.18-0.02,0.35-0.03,0.53-0.05c0.07,0.78,0.19,1.56,0.21,2.34C310.92,200.54,310.85,201.4,310.83,202.45z"/>
		<path class="st21" d="M302.69,220.1c1.05,0.13,1.94,0.27,2.98,0.43c0.17,1.04,0.19,2.08,0.16,3.3c-1.21-0.82-2.38-1.83-3.73-2.85
			C302.13,220.69,302.33,220.41,302.69,220.1z"/>
		<path class="st35" d="M287.19,229.74c1.98,0,3.89,0.14,5.8,0.17c0.88,0.02,1.76-0.16,2.86-0.22c0.72,0.2,1.22,0.36,2.2,0.69
			c-4.01,0-7.52,0-11.17-0.12C286.87,230.04,286.99,229.94,287.19,229.74z"/>
		<path class="st36" d="M312.27,187.56c0.17,1.15,0.31,2.5,0.42,4.04c-2.59-0.02-5.15-0.24-7.71-0.46
			c-0.01-0.08-0.01-0.15-0.02-0.23c1.26,0,2.52,0,3.78,0C312.18,190.89,312.18,190.89,312.27,187.56z"/>
		<path class="st37" d="M291.11,204.05c0.21,0.02,0.39,0.15,0.52,0.35c-0.13,0.06-0.22,0.04-0.45-0.01
			C291.04,204.36,291.07,204.15,291.11,204.05z"/>
		<path class="st0" d="M239.81,253.64c-1.39,0.01-2.6-0.1-3.79-0.02c-8.3,0.54-16.59,1.12-24.89,1.68c-0.02-0.25-0.04-0.5-0.06-0.75
			c1.69,0,3.37-0.01,5.06,0c1.97,0.01,3.05-0.55,3.19-2.58c0.51-7.29,1.61-14.57,1.75-21.86c0.09-5.03-1.03-10.07-1.61-15.11
			c-0.09-0.78-0.19-1.57-0.31-2.49c4.95,0.61,6.91,4.08,8.74,7.16c5.43,9.14,7.36,18.92,5.45,29.2c-0.17,0.93-0.25,1.87-0.31,2.81
			c-0.02,0.34,0.13,0.69,0.18,0.96c3.16-0.13,6.21-0.26,9.26-0.39c0.04,0.18,0.09,0.36,0.13,0.55
			C241.73,253.06,240.87,253.33,239.81,253.64z M231.25,238.34c-0.66,4.93-1.31,9.86-1.99,14.98
			C231.2,252.2,232.39,243.62,231.25,238.34z"/>
		<path class="st0" d="M261.66,305.81c-1.18,2.93-2.36,5.7-3.56,8.63c-0.46,1.13-0.9,2.09-1.63,3.69c-1.15-3.03-1.1-5.48-0.51-7.9
			c1.78-7.29,1.53-14.49-0.74-21.68c-0.8-2.53-1.24-5.15-1.42-7.89c0.26,0.3,0.73,0.59,0.74,0.89c0.04,2.45,1.55,2.24,3.42,1.59
			c2.5-0.86,5.01-1.68,7.53-2.5c1.28-0.41,2.16-0.94,1.67-2.38c-0.47-1.4-0.03-2.21,1.86-2.54c1.77-0.31,3.41-1.17,5.69-2
			C270.29,284.53,265.98,295.09,261.66,305.81z"/>
		<path class="st38" d="M212.02,207.82c5,4.28,6.01,9.59,4.88,15.35c-2.11,10.74-6.51,20.78-12.1,30.44
			c-0.25,0.43-0.4,0.9-0.69,1.59c-1.64-1.1-0.74-2.2-0.28-3.1c1.62-3.22,3.46-6.35,5.03-9.58c3.26-6.72,5.91-13.62,6.92-20.91
			c0.67-4.8-0.7-9.18-4.31-13.14C211.68,208.09,211.85,207.96,212.02,207.82z"/>
		<path class="st38" d="M287.2,243.41c0.2-0.27,0.42-0.36,0.63-0.48c0.65-0.35,1.3-0.72,1.94-1.08c-0.71-0.3-1.42-0.6-2.33-0.92
			c0.86-0.27,1.92-0.6,3.01-0.73c1.03-0.12,2.1-0.04,3.38-0.08c2.37-0.04,4.51-0.05,6.88-0.01c0.14,0.3,0.06,0.55-0.33,0.87
			c-1,0.35-1.69,0.63-2.38,0.91c0.65,0.41,1.28,0.85,1.95,1.23c0.26,0.15,0.61,0.17,0.91,0.25c-0.4,0.35-0.79,1.01-1.2,1.01
			c-3.76,0.08-7.52,0.07-11.28,0.01C287.99,244.4,287.61,243.87,287.2,243.41z"/>
		<path class="st39" d="M238.77,319c-2.11,0.21-4.03,0.38-5.94,0.55c-0.06-0.25-0.12-0.51-0.19-0.76c1.55-0.36,3.09-0.75,4.65-1.06
			c2.3-0.46,4.23-0.94,4.17-3.74c-0.03-1.8,0.97-3.62,1.51-5.43c0.29,0.03,0.58,0.07,0.86,0.1c0,0.87,0.05,1.75-0.01,2.61
			c-0.06,0.94-0.27,1.87-0.34,2.81C243.2,318.01,243.22,318.01,238.77,319z"/>
		<path class="st40" d="M235.2,160.21c2.12,1.17,4.08,2.26,6.05,3.35c-0.18,0.24-0.35,0.48-0.53,0.73c-2.98-1.47-5.99-2.9-8.94-4.41
			c-1.46-0.75-2.97-1.51-4.18-2.53c-0.71-0.6-0.87-1.7-1.12-2.23C229.28,156.76,232.16,158.44,235.2,160.21z"/>
		<path class="st41" d="M250.27,298.24c-0.44-0.9-0.78-1.64-1.25-2.66c2.75,0.96,4,5.84,3.12,12.4c-0.43-1.55-0.98-3.09-1.27-4.66
			C250.57,301.7,250.52,300.04,250.27,298.24z"/>
		<path class="st41" d="M211.93,207.69c-0.08,0.27-0.25,0.41-0.54,0.66c-3.8-2.93-8.18-4.39-13.25-4.34
			C203.49,202.96,207.98,204.36,211.93,207.69z"/>
		<path class="st42" d="M250.02,170.12c3.8,1.87,6.57,4.54,8.9,7.58c-0.2,0.16-0.39,0.32-0.59,0.48
			C255.51,175.52,252.7,172.87,250.02,170.12z"/>
		<path class="st43" d="M256.72,169.52c-1,0.35-2,0.7-3,1.04c-0.18-0.15-0.36-0.29-0.54-0.44c0.65-1.15,1.3-2.3,2.03-3.59
			c0.94,0.87,1.54,1.43,2.2,2.2C257.23,169.14,256.97,169.33,256.72,169.52z"/>
		<path class="st44" d="M256.69,169.69c0.28-0.37,0.54-0.56,0.86-0.84c0.6-0.22,1.13-0.35,1.66-0.48c0.21,0.12,0.41,0.23,0.62,0.35
			c-0.87,1.37-1.73,2.74-2.6,4.11c-0.27-0.07-0.54-0.14-0.8-0.21C256.51,171.71,256.58,170.79,256.69,169.69z"/>
		<path class="st45" d="M201.7,315.67c3.14,0.04,6.41,0.18,9.91,0.32c-0.22,0.27-0.7,0.78-1.12,0.75
			C207.6,316.48,204.72,316.11,201.7,315.67z"/>
		<path class="st46" d="M242.8,270c-0.38,0.15-0.95,0.23-0.98,0.14c-0.12-0.33-0.08-0.7-0.08-1.06c0-0.99,0-1.97,0-3.03
			c1.79-0.26,2.39,0.26,2.01,1.57C243.52,268.39,243.16,269.11,242.8,270z"/>
		<path class="st47" d="M302.42,241.05c1.06-1.47,3.41-1.45,4.48,0.23c0.02,0.19-0.09,0.32-0.21,0.41
			c-0.13,0.09-0.31,0.18-0.44,0.16c-0.21-0.01-0.3,0.01-0.5-0.01c-0.12-0.03-0.35,0-0.49-0.03c-0.4-0.14-0.66-0.24-1.01-0.48
			C303.57,241.15,302.99,241.1,302.42,241.05z"/>
		<path class="st48" d="M300.83,243.22c-0.27,0.08-0.62,0.06-0.88-0.09c-0.67-0.38-1.3-0.82-1.95-1.23
			c0.69-0.28,1.38-0.56,2.27-0.82C300.58,241.75,300.69,242.4,300.83,243.22z"/>
		<path class="st41" d="M218.73,317.13c0.6,0.18,1.01,0.32,1.41,0.45c-0.05,0.17-0.1,0.35-0.16,0.52c-2.09-0.21-4.18-0.43-6.27-0.64
			c0.03-0.23,0.05-0.47,0.08-0.7C215.38,316.87,216.96,316.98,218.73,317.13z"/>
		<path class="st49" d="M306.82,243.69c-1.27,0.25-2.54,0.51-4.08,0.61c0.38-0.47,1.03-0.79,1.73-1.02
			c0.15,0.19,0.28,0.24,0.55,0.26c0.11,0.04,0.34,0.01,0.52,0.05C306.09,243.64,306.46,243.66,306.82,243.69z"/>
		<path class="st50" d="M304.42,243.19c-0.65,0.32-1.3,0.63-1.88,1.11c-0.17-0.71-0.39-1.6-0.62-2.66c0.09-0.18,0.18-0.18,0.39-0.09
			c0.17,0.2,0.2,0.32,0.24,0.44c0,0.01,0.1-0.01,0.15-0.02c-0.09-0.16-0.18-0.33-0.27-0.49c0,0-0.01-0.22-0.01-0.33
			c0.57-0.05,1.15,0,1.7,0.24c0.24,0.72,0.51,1.25,0.65,1.79C304.66,243.18,304.42,243.19,304.42,243.19z"/>
		<path class="st51" d="M306.83,243.49c-0.37,0.17-0.74,0.15-1.28-0.08c-0.17-0.66-0.16-1.11-0.16-1.57c0,0,0.24-0.03,0.36,0.09
			c0.23,0.25,0.34,0.37,0.45,0.5c0.06-0.19,0.11-0.38,0.17-0.56c0,0,0.18-0.08,0.28-0.1C306.78,242.27,306.81,242.79,306.83,243.49z
			"/>
		<path class="st1" d="M185.8,344.94c3.55-0.22,7.14-0.17,10.7-0.44c1.26-0.09,2.45-0.95,3.85-1.48c1.02,2.7,0.51,3.39-2.54,4.1
			c-2.67,0.62-5.33,1.32-7.94,2.13c-3.17,0.99-4.14,0.4-4.03-2.66C185.86,346.09,185.83,345.59,185.8,344.94z"/>
		<path class="st52" d="M317.71,229.86c0.61,0.04,1.22,0.2,1.83,0.36c-0.49,0.11-0.98,0.21-1.64,0.28
			C317.73,230.31,317.72,230.15,317.71,229.86z"/>
		<path class="st53" d="M231.4,238.43c0.98,5.19-0.2,13.77-2.15,14.88C229.93,248.2,230.59,243.27,231.4,238.43z"/>
		<path class="st10" d="M305.25,241.81c0.14,0.49,0.13,0.95,0.12,1.57c-0.01,0.17-0.24,0.19-0.35,0.07
			c-0.11-0.12-0.13-0.28-0.13-0.28c-0.26-0.53-0.53-1.07-0.67-1.66C304.59,241.57,304.85,241.67,305.25,241.81z"/>
		<path class="st4" d="M306.24,241.85c0.07,0.21,0.01,0.4-0.04,0.59c-0.11-0.13-0.21-0.25-0.33-0.47
			C305.94,241.85,306.03,241.84,306.24,241.85z"/>
		<path class="st51" d="M304.77,243.18c0.12,0,0.13,0.16,0.14,0.24c-0.16,0.09-0.28,0.05-0.44-0.15
			C304.42,243.19,304.66,243.18,304.77,243.18z"/>
		<path class="st1" d="M302.43,241.47c0.1,0.17,0.18,0.33,0.27,0.5c-0.05,0.01-0.14,0.03-0.15,0.02c-0.04-0.12-0.07-0.24-0.11-0.44
			C302.44,241.47,302.42,241.46,302.43,241.47z"/>
	</g>
</g>
<g>
	<g>
		<path class="st54" d="M165.77,356.79C142.29,328.03,128,289.98,128,248.24c0-74.45,45.46-137.19,107.45-156.31
			C154.6,99.28,91.26,167.24,91.26,250c0,41.12,15.64,78.59,41.29,106.79H165.77z"/>
	</g>
</g>
<g>
	<g>
		<path class="st54" d="M152.56,390.73c-44.55-30.9-73.72-82.4-73.72-140.73c0-94.53,76.63-171.17,171.17-171.17
			S421.17,155.47,421.17,250c0,58.32-29.18,109.82-73.72,140.73h81.79c30.47-38.75,48.64-87.62,48.64-140.73
			c0-125.85-102.02-227.87-227.87-227.87S22.13,124.15,22.13,250c0,53.11,18.17,101.98,48.64,140.73H152.56z"/>
	</g>
</g>
<g>
	<g>
		<path class="st1" d="M344.8,107.47c25.13,16.74,45.57,39.95,58.96,67.25c21.05,3.07,43.27,7.15,65.2,11.99
			c-16.44-56.99-54.53-104.8-104.79-133.95C359.6,66.3,353.04,85.18,344.8,107.47z"/>
	</g>
</g>
<g>
	<g>
		<path d="M171.83,402.22c-53.96-27.83-91.22-83.52-92.76-148.05c-5.97-0.85-11.96-2.08-17.97-3.73
			c-14.42-3.96-27.2-8.33-38.45-12.78c-0.22,4.09-0.34,8.2-0.34,12.34c0,58.51,22.06,111.87,58.31,152.22H171.83z"/>
	</g>
</g>
<path d="M80.45,280.57c32.79,112.52-5.07,58.29,168.04,80.88c27.26,3.56,165.83,11.92,200.93,40.76H156.19
	C3.5,402.22,69.91,244.4,80.45,280.57z"/>
<text transform="matrix(1 0 0 1 81.2893 455.1082)" class="st54 st55 st56">WIDE ANGLE</text>
<path class="st57" d="M447.3,400.22c-271.32-66.6-373,89.68-396.42-153.73"/>
</svg>
